custom-analysis
version=1
nRows=4
nColumns=98
inDegrees=no

This file contains tibia displacement and acting force.

Units are S.I. units (seconds, meters, Newtons, ...)
Angles are in degrees.

endheader
time	APT	SIT	knee_angle	aACL_R_force	pACL_R_force	aPCL_R_force	pPCL_R_force	aMCL_R_force	mMCL_R_force	pMCL_R_force	aLCL_R_force	mLCL_R_force	pLCL_R_force	aPCL_L_force	pPCL_L_force	aMCL_L_force	aLCL_L_force	aACL_R_length	pACL_R_length	aPCL_R_length	pPCL_R_length	aMCL_R_length	mMCL_R_length	pMCL_R_length	aLCL_R_length	mLCL_R_length	pLCL_R_length	aPCL_L_length	pPCL_L_length	aMCL_L_length	aLCL_L_length	aACL_R_strain	pACL_R_strain	aPCL_R_strain	pPCL_R_strain	aMCL_R_strain	mMCL_R_strain	pMCL_R_strain	aLCL_R_strain	mLCL_R_strain	pLCL_R_strain	aPCL_L_strain	pPCL_L_strain	aMCL_L_strain	aLCL_L_strain	femur_lat_meniscii_r.femur_lat_r.force.X	femur_lat_meniscii_r.femur_lat_r.force.Y	femur_lat_meniscii_r.femur_lat_r.force.Z	femur_lat_meniscii_r.femur_lat_r.torque.X	femur_lat_meniscii_r.femur_lat_r.torque.Y	femur_lat_meniscii_r.femur_lat_r.torque.Z	femur_lat_meniscii_r.meniscus_lat_r.force.X	femur_lat_meniscii_r.meniscus_lat_r.force.Y	femur_lat_meniscii_r.meniscus_lat_r.force.Z	femur_lat_meniscii_r.meniscus_lat_r.torque.X	femur_lat_meniscii_r.meniscus_lat_r.torque.Y	femur_lat_meniscii_r.meniscus_lat_r.torque.Z	femur_med_meniscii_r.femur_med_r.force.X	femur_med_meniscii_r.femur_med_r.force.Y	femur_med_meniscii_r.femur_med_r.force.Z	femur_med_meniscii_r.femur_med_r.torque.X	femur_med_meniscii_r.femur_med_r.torque.Y	femur_med_meniscii_r.femur_med_r.torque.Z	femur_med_meniscii_r.meniscus_med_r.force.X	femur_med_meniscii_r.meniscus_med_r.force.Y	femur_med_meniscii_r.meniscus_med_r.force.Z	femur_med_meniscii_r.meniscus_med_r.torque.X	femur_med_meniscii_r.meniscus_med_r.torque.Y	femur_med_meniscii_r.meniscus_med_r.torque.Z	femur_med_tibia_r.tibia_upper_r.force.X	femur_med_tibia_r.tibia_upper_r.force.Y	femur_med_tibia_r.tibia_upper_r.force.Z	femur_med_tibia_r.tibia_upper_r.torque.X	femur_med_tibia_r.tibia_upper_r.torque.Y	femur_med_tibia_r.tibia_upper_r.torque.Z	femur_med_tibia_r.femur_med_r.force.X	femur_med_tibia_r.femur_med_r.force.Y	femur_med_tibia_r.femur_med_r.force.Z	femur_med_tibia_r.femur_med_r.torque.X	femur_med_tibia_r.femur_med_r.torque.Y	femur_med_tibia_r.femur_med_r.torque.Z	femur_lat_tibia_r.tibia_upper_r.force.X	femur_lat_tibia_r.tibia_upper_r.force.Y	femur_lat_tibia_r.tibia_upper_r.force.Z	femur_lat_tibia_r.tibia_upper_r.torque.X	femur_lat_tibia_r.tibia_upper_r.torque.Y	femur_lat_tibia_r.tibia_upper_r.torque.Z	femur_lat_tibia_r.femur_lat_r.force.X	femur_lat_tibia_r.femur_lat_r.force.Y	femur_lat_tibia_r.femur_lat_r.force.Z	femur_lat_tibia_r.femur_lat_r.torque.X	femur_lat_tibia_r.femur_lat_r.torque.Y	femur_lat_tibia_r.femur_lat_r.torque.Z	femur_lat_meniscii_force_r	femur_med_meniscii_force_r	femur_lat_tibia_force_r	femur_med_tibia_force_r
      0.09010986	      0.01159219	      0.00744377	     28.49959044	     17.67532011	    -15.39895217	      0.00000000	      0.00000000	      0.00000000	     -2.50398601	    -43.59722866	      0.00000000	      0.00000000	      0.00000000	      0.00000000	      0.00000000	      0.00000001	      0.00000000	      0.03296095	      0.02571119	      0.03015144	      0.02881510	      0.05799961	      0.05980997	      0.05906935	      0.05410001	      0.05088407	      0.04726578	      0.01525851	      0.01651186	      0.06550154	      0.04489616	      0.06306771	      0.02603840	     -0.03035386	     -0.03589088	     -0.03377461	      0.00027548	      0.00581247	     -0.03353499	     -0.09649615	     -0.09699380	      0.00000079	     -0.32847694	      0.00000060	     -0.00000086	    -11.26609095	    218.37831943	     22.23020549	    -14.37692407	     -0.19012894	     -6.12882570	     11.26609095	   -218.37831943	    -22.23020549	      6.40575674	     -0.06432266	      4.58870568	     -2.03375417	    224.35709398	      8.68554627	      1.13874277	      0.14092832	     -2.40407815	      2.03375417	   -224.35709398	     -8.68554627	     -3.89442735	     -0.24645462	      4.48468297	    -17.96465126	   -625.55826370	     12.96608159	    -11.70923034	      0.50095143	      8.91811144	     17.96465126	    625.55826370	    -12.96608159	     18.30116584	     -0.38193548	      5.95710231	      3.83212610	    -18.48048510	     -4.04308556	      0.60253147	      0.03279545	      0.42143024	     -3.83212610	     18.48048510	      4.04308556	     -2.10706870	     -0.07447281	     -1.65696148	    219.79580805	    224.53436372	     19.30181497	    625.95046869
      0.09074797	      0.01165491	      0.00753748	     28.82989140	     16.92208526	    -15.84761048	      0.00000000	      0.00000000	      0.00000000	     -1.52689067	    -42.66150962	      0.00000000	      0.00000000	      0.00000000	      0.00000000	      0.00000000	      0.00000001	      0.00000000	      0.03294043	      0.02567831	      0.03020998	      0.02884977	      0.05803405	      0.05980797	      0.05903108	      0.05410067	      0.05086300	      0.04722533	      0.01525851	      0.01651186	      0.06550154	      0.04489616	      0.06240592	      0.02472643	     -0.02847109	     -0.03473077	     -0.03320096	      0.00024207	      0.00516072	     -0.03352315	     -0.09687035	     -0.09776655	      0.00000079	     -0.32847694	      0.00000060	     -0.00000086	    -12.99425254	    215.91875631	     21.77966699	    -14.12672499	     -0.23941562	     -6.86193478	     12.99425254	   -215.91875631	    -21.77966699	      6.31782129	     -0.00733577	      4.64920058	     -1.61371518	    224.68459134	      8.31466925	      1.30071709	      0.13890839	     -2.23487726	      1.61371518	   -224.68459134	     -8.31466925	     -3.91735470	     -0.24168526	      4.50434471	    -18.28677487	   -608.50270521	     13.55175068	    -11.44626671	      0.51913927	      8.77586622	     18.28677487	    608.50270521	    -13.55175068	     18.20860059	     -0.39174573	      6.06949157	      3.51420747	    -17.01863314	     -3.70297713	      0.55300328	      0.02931243	      0.39040940	     -3.51420747	     17.01863314	      3.70297713	     -1.93113063	     -0.06792135	     -1.52083884	    217.40311364	    224.84417579	     17.76782394	    608.92823742
      0.09138607	      0.01171478	      0.00763090	     29.16087282	     15.43055281	    -16.95883397	      0.00000000	      0.00000000	      0.00000000	     -1.09094684	    -42.25973639	      0.00000000	      0.00000000	      0.00000000	      0.00000000	      0.00000000	      0.00000001	      0.00000000	      0.03291925	      0.02564512	      0.03027049	      0.02888640	      0.05806908	      0.05980668	      0.05899352	      0.05410235	      0.05084291	      0.04718598	      0.01525851	      0.01651186	      0.06550154	      0.04489616	      0.06172278	      0.02340171	     -0.02652530	     -0.03350535	     -0.03261733	      0.00022046	      0.00452116	     -0.03349309	     -0.09722699	     -0.09851850	      0.00000079	     -0.32847694	      0.00000060	     -0.00000086	    -15.40826825	    212.92710291	     20.91678268	    -13.68858069	     -0.31002426	     -7.87919104	     15.40826825	   -212.92710291	    -20.91678268	      6.19910425	      0.07815363	      4.72247606	     -3.62696048	    224.94105253	      8.78460651	      1.10861345	      0.18616700	     -3.09436046	      3.62696048	   -224.94105253	     -8.78460651	     -3.90913662	     -0.29078642	      4.61700312	    -15.47250685	   -590.65476908	     12.74758503	    -11.11710918	      0.45894477	      8.73247939	     15.47250685	    590.65476908	    -12.74758503	     17.51504356	     -0.33311212	      4.86348733	      3.28281148	    -15.47678218	     -3.32373417	      0.50078295	      0.02866815	      0.36132127	     -3.28281148	     15.47678218	      3.32373417	     -1.73760356	     -0.06338943	     -1.42123611	    214.50612505	    225.14173595	     16.16647292	    590.99488629
      0.09202418	      0.01177084	      0.00772444	     29.49240245	     13.67298874	    -18.28347604	      0.00000000	      0.00000000	      0.00000000	     -0.97945571	    -42.16678625	      0.00000000	      0.00000000	      0.00000000	      0.00000000	      0.00000000	      0.00000001	      0.00000000	      0.03289648	      0.02561075	      0.03033301	      0.02892501	      0.05810417	      0.05980560	      0.05895618	      0.05410474	      0.05082349	      0.04714741	      0.01525851	      0.01651186	      0.06550154	      0.04489616	      0.06098846	      0.02203008	     -0.02451480	     -0.03221349	     -0.03203271	      0.00020233	      0.00388536	     -0.03345038	     -0.09757180	     -0.09925537	      0.00000079	     -0.32847694	      0.00000060	     -0.00000086	    -14.71219508	    210.25442079	     19.79926725	    -13.14603452	     -0.28597409	     -7.58894946	     14.71219508	   -210.25442079	    -19.79926725	      6.07478659	      0.06460686	      4.68529959	     -6.10348823	    227.41495342	      8.11009017	      1.45384222	      0.24347063	     -4.16099163	      6.10348823	   -227.41495342	     -8.11009017	     -3.99314715	     -0.33395109	      4.78712448	    -13.17370589	   -572.05660795	     12.00726788	    -10.77916501	      0.40902285	      8.64711295	     13.17370589	    572.05660795	    -12.00726788	     16.83604665	     -0.28552257	      3.88202603	      2.96398591	    -13.77977387	     -2.97037741	      0.44605518	      0.02569774	      0.32608249	     -2.96398591	     13.77977387	      2.97037741	     -1.55182324	     -0.05699507	     -1.28428085	    211.69643627	    227.64135646	     14.40453131	    572.33424125
